<svg xmlns="http://www.w3.org/2000/svg" viewBox="0 0 134.09 134.09"><defs><style>.cls-1{fill:#bd272d;}.cls-2{fill:none;}.cls-3{fill:#fff;}</style></defs><title>Asset 2</title><g id="Layer_2" data-name="Layer 2"><g id="Layer_1-2" data-name="Layer 1"><path class="cls-1" d="M67,0a67.37,67.37,0,0,0-8.8.58A66.49,66.49,0,0,0,46,3.4,67,67,0,0,0,67,134.09q1.74,0,3.47-.09A67,67,0,0,0,67,0Z"/><path class="cls-2" d="M67,4.1a63.2,63.2,0,0,0-8.8.62V95.24H46V74.67L32.1,95.24H17.17L36.52,66.58,17.17,38.85H31.5L46,59.87V7.73A62.94,62.94,0,0,0,67,130q1.75,0,3.47-.1v-91H82.78v21l14.48-21h14.33L92.23,66.58l19.36,28.67H96.65L82.78,74.67V128A62.95,62.95,0,0,0,67,4.1Z"/><path class="cls-3" d="M97.45,95.24H112a.14.14,0,0,0,.12-.23L93,66.66a.14.14,0,0,1,0-.16l19.14-27.42a.14.14,0,0,0-.12-.23h-14a.14.14,0,0,0-.12.06L83.77,59.49a.14.14,0,0,1-.26-.08V39a.14.14,0,0,0-.14-.14h-12a.14.14,0,0,0-.14.14v90.74a.15.15,0,0,0,.16.15,62.67,62.67,0,0,0,12-1.86.15.15,0,0,0,.11-.14V75.14a.14.14,0,0,1,.26-.08L97.33,95.18A.14.14,0,0,0,97.45,95.24Z"/><path class="cls-3" d="M31.69,38.85h-14a.14.14,0,0,0-.12.23L36.74,66.5a.14.14,0,0,1,0,.16L17.6,95a.14.14,0,0,0,.12.23H32.3a.14.14,0,0,0,.12-.06L46,75.06a.14.14,0,0,1,.26.08v20a.14.14,0,0,0,.14.14h12a.14.14,0,0,0,.14-.14V4.89a.15.15,0,0,0-.17-.15,62.41,62.41,0,0,0-12,3,.15.15,0,0,0-.1.14V59.4a.14.14,0,0,1-.26.08L31.81,38.91A.14.14,0,0,0,31.69,38.85Z"/></g></g></svg>